# xmcd CD database file
#
# Track frame offsets:
#	150
#	33592
#	67312
#	86977
#	123052
#	166240
#	182170
#	223040
#
# Disc length: 3401 seconds
#
# Revision: 6
# Processed by: cddbd v1.5.1PL0 Copyright (c) Steve Scherf et al.
# Submitted via: CDex 1.51
#
DISCID=740d4708
DTITLE=Milt Jackson and John Coltrane - Bags and Trane
DYEAR=1959
DGENRE=Jazz
TTITLE0=Bags and Trane
TTITLE1=Three Little Words
TTITLE2=The Night We Called It A Day
TTITLE3=Be-Bop
TTITLE4=The Late Late Blues
TTITLE5=Stairways To The Stars
TTITLE6=Blue Legacy
TTITLE7=Centerpiece
EXTD=YEAR: 1959
EXTT0=
EXTT1=
EXTT2=
EXTT3=
EXTT4=
EXTT5=
EXTT6=
EXTT7=
PLAYORDER=
